# xmcd
#
# Track frame offsets:
#	150
#	14187
#	34912
#	52687
#	81937
#	100600
#	119550
#	148850
#	164725
#	187237
#
# Disc length: 2706 seconds
# Revision: 12
# Processed by: cddbd v1.5.2PL0 Copyright (c) Steve Scherf et al.
# Submitted via: dBpowerAMP V12.0
#
DISCID=910a900a
DTITLE=Katie Webster - No Foolin'!
DYEAR=1991
DGENRE=Blues
TTITLE0=A Little Meat on the Side
TTITLE1=I'm Bad
TTITLE2=No Deposit, No Return
TTITLE3=Zydeco Shoes and California Blues
TTITLE4=Too Much Sugar for a Dime
TTITLE5=Hard Lovin' Mama
TTITLE6=It's Mighty Hard
TTITLE7=Tangled in Your Web
TTITLE8=Those Lonely, Lonely Nights
TTITLE9=Mama Cat Cuttin' No Slack
EXTD=
EXTT0=
EXTT1=
EXTT2=
EXTT3=
EXTT4=
EXTT5=
EXTT6=
EXTT7=
EXTT8=
EXTT9=
PLAYORDER=
